<svg width="24" height="24" viewBox="0 0 24 24" fill="none" xmlns="http://www.w3.org/2000/svg">
<path d="M13.79 5.03809C13.883 5.07192 13.9775 5.12261 14.0615 5.18555C14.164 5.26253 14.333 5.46105 14.459 6.20703C14.5842 6.94884 14.6316 7.98221 14.6973 9.48926C14.7452 10.5876 14.7764 11.5041 14.7764 12C14.7764 12.4959 14.7452 13.4124 14.6973 14.5107C14.6316 16.0178 14.5842 17.0511 14.459 17.793C14.333 18.539 14.164 18.7375 14.0615 18.8145C14.0194 18.846 13.9745 18.8746 13.9287 18.8994L13.79 18.9619C13.7085 18.9915 13.5003 19.0373 12.8701 18.7109C12.3965 18.4656 11.8221 18.0848 11.0605 17.5557L10.2334 16.9766C9.75294 16.6387 9.37106 16.3625 8.95801 16.1797L8.7793 16.1074C8.6834 16.0722 8.58643 16.0413 8.48926 16.0146C7.9886 15.8773 7.4736 15.8857 6.81738 15.8857C5.79648 15.8857 5.1307 15.8836 4.62305 15.8154C4.27076 15.7681 4.05248 15.6949 3.88867 15.5967L3.74023 15.4902C3.69894 15.4554 3.64922 15.4082 3.60156 15.3584L3.47461 15.2129C3.11374 14.7478 3.05938 14.2296 3.01953 12.2637C3.0177 12.1733 3.0166 12.0853 3.0166 12C3.0166 11.9148 3.0177 11.8267 3.01953 11.7363C3.05938 9.77032 3.11378 9.25207 3.47461 8.78711C3.54325 8.69868 3.65798 8.57921 3.74023 8.50977C3.92195 8.35643 4.15345 8.24769 4.62305 8.18457C5.1307 8.11635 5.79647 8.11426 6.81738 8.11426C7.47361 8.11426 7.98861 8.12272 8.48926 7.98535C8.58686 7.95856 8.6834 7.92734 8.77832 7.89258C9.14228 7.75924 9.47015 7.55396 9.84277 7.29688L10.2334 7.02344C11.4281 6.18349 12.2387 5.61616 12.8701 5.28906C13.5004 4.96262 13.7085 5.00846 13.79 5.03809Z" stroke="black" stroke-width="2.0339"/>
<path fill-rule="evenodd" clip-rule="evenodd" d="M19.4894 5.5523C19.782 5.29229 20.2169 5.33445 20.4607 5.64646L19.9309 6.11724C20.4607 5.64646 20.4607 5.64646 20.4607 5.64646L20.4617 5.64781L20.4629 5.64933L20.4656 5.65286L20.4726 5.66195C20.4778 5.66891 20.4843 5.67767 20.492 5.68825C20.5073 5.7094 20.5273 5.73783 20.5513 5.77369C20.5994 5.8454 20.6634 5.94678 20.7378 6.07901C20.8866 6.34356 21.0769 6.73103 21.2642 7.25049C21.6396 8.29118 21.9998 9.85148 21.9998 12.0003C21.9998 14.1492 21.6396 15.7095 21.2642 16.7502C21.0769 17.2697 20.8866 17.6571 20.7378 17.9217C20.6634 18.0539 20.5994 18.1553 20.5513 18.227C20.5273 18.2629 20.5073 18.2913 20.492 18.3124C20.4843 18.323 20.4778 18.3318 20.4726 18.3387L20.4656 18.3478L20.4629 18.3514L20.4617 18.3529C20.4617 18.3529 20.4607 18.3542 19.9309 17.8834L20.4607 18.3542C20.2169 18.6662 19.782 18.7084 19.4894 18.4484C19.1982 18.1896 19.1576 17.7291 19.3976 17.4172C19.3976 17.4172 19.3992 17.4149 19.4008 17.4128C19.4056 17.4061 19.4153 17.3926 19.429 17.3721C19.4563 17.3312 19.5001 17.2626 19.555 17.165C19.6648 16.9699 19.8194 16.6588 19.9769 16.2222C20.2911 15.3509 20.6205 13.9696 20.6205 12.0003C20.6205 10.031 20.2911 8.64979 19.9769 7.77847C19.8194 7.34192 19.6648 7.03077 19.555 6.83571C19.5001 6.73813 19.4563 6.66945 19.429 6.62856C19.4153 6.60811 19.4056 6.5946 19.4008 6.58789C19.3992 6.58572 19.3976 6.58351 19.3976 6.58351" fill="black"/>
<path fill-rule="evenodd" clip-rule="evenodd" d="M17.7572 8.41592C18.0902 8.21868 18.51 8.34659 18.695 8.70163L18.0921 9.05876C18.695 8.70163 18.695 8.70163 18.695 8.70163L18.6957 8.70291L18.6964 8.70428L18.6979 8.70727L18.7014 8.71425L18.7103 8.73224C18.717 8.74604 18.7251 8.76345 18.7345 8.78454C18.7534 8.82672 18.7772 8.88359 18.8043 8.95571C18.8584 9.1 18.9252 9.30487 18.9901 9.57473C19.12 10.1149 19.2415 10.9118 19.2415 12.0003C19.2415 13.0888 19.12 13.8857 18.9901 14.4259C18.9252 14.6958 18.8584 14.9006 18.8043 15.0449C18.7772 15.117 18.7534 15.1739 18.7345 15.2161C18.7251 15.2372 18.717 15.2546 18.7103 15.2684L18.7014 15.2864L18.6979 15.2934L18.6964 15.2963L18.6957 15.2977C18.6957 15.2977 18.695 15.299 18.0921 14.9419L18.695 15.299C18.51 15.654 18.0902 15.782 17.7572 15.5847C17.4271 15.3891 17.3063 14.9474 17.4846 14.5938L17.4892 14.5838C17.4955 14.5696 17.5076 14.5415 17.5236 14.4987C17.5557 14.4132 17.6039 14.2687 17.654 14.0606C17.754 13.6448 17.8622 12.9709 17.8622 12.0003C17.8622 11.0297 17.754 10.3558 17.654 9.94003C17.6039 9.73189 17.5557 9.58745 17.5236 9.50194C17.5076 9.45915 17.4955 9.43099 17.4892 9.41687L17.4846 9.40684C17.3063 9.05328 17.4271 8.61149 17.7572 8.41592Z" fill="black"/>
</svg>
