<svg width="14" height="14" viewBox="0 0 14 14" fill="none" xmlns="http://www.w3.org/2000/svg">
<path fill-rule="evenodd" clip-rule="evenodd" d="M0 7C0 3.13401 3.13401 0 7 0C10.866 0 14 3.13401 14 7C14 10.866 10.866 14 7 14C3.13401 14 0 10.866 0 7ZM11.0828 5.53894C11.3308 5.28989 11.3299 4.88697 11.0808 4.63899L10.6299 4.18998C10.3808 3.94201 9.97793 3.94287 9.72994 4.19192L6.0571 7.8806L3.94369 5.79657C3.69344 5.54984 3.29053 5.55265 3.04376 5.80294L2.59695 6.25603C2.35018 6.50625 2.35301 6.90919 2.60326 7.15597L5.61853 10.1293C5.86791 10.3752 6.26914 10.3734 6.5163 10.1252L11.0828 5.53894Z" fill="#30832F"/>
</svg>
