<svg width="23" height="31" viewBox="0 0 23 31" fill="none" xmlns="http://www.w3.org/2000/svg">
<path d="M19.5779 15.9084C19.5792 14.3828 19.1603 12.8862 18.3672 11.583C17.574 10.2797 16.4373 9.2201 15.0816 8.52036C13.7259 7.82062 12.2036 7.5078 10.6819 7.61622C9.16009 7.72463 7.69756 8.25011 6.45475 9.13497C5.21194 10.0198 4.23685 11.2299 3.63647 12.6325C3.03609 14.035 2.83363 15.5758 3.05125 17.0858C3.26888 18.5958 3.89822 20.0168 4.87022 21.1927C5.84221 22.3686 7.1193 23.2541 8.5614 23.752V29.9683H13.9833V23.752C15.6157 23.1888 17.0319 22.1306 18.0347 20.7247C19.0374 19.3188 19.5769 17.6353 19.5779 15.9084Z" stroke="black" stroke-width="2" stroke-linecap="round" stroke-linejoin="round"/>
<path d="M14.9245 26.0938H7.70361V28.9121H14.9245V26.0938Z" fill="black" stroke="black" stroke-width="2" stroke-linecap="round" stroke-linejoin="round"/>
<path d="M11.2725 1V2.93664" stroke="black" stroke-width="2" stroke-linecap="round" stroke-linejoin="round"/>
<path d="M21.2486 4.82959L20.02 6.32689" stroke="black" stroke-width="2" stroke-linecap="round" stroke-linejoin="round"/>
<path d="M1 4.82959L2.22862 6.32689" stroke="black" stroke-width="2" stroke-linecap="round" stroke-linejoin="round"/>
</svg>
