<svg width="23" height="23" viewBox="0 0 23 23" fill="none" xmlns="http://www.w3.org/2000/svg">
<g clip-path="url(#clip0_350_3206)">
<path d="M17.7717 11.8148C17.7727 10.6829 17.4619 9.57257 16.8735 8.60564C16.285 7.63871 15.4416 6.85254 14.4358 6.33337C13.4299 5.81421 12.3005 5.58212 11.1715 5.66255C10.0424 5.74299 8.95731 6.13286 8.03522 6.78937C7.11314 7.44588 6.38968 8.3437 5.94424 9.38429C5.4988 10.4249 5.34858 11.568 5.51005 12.6884C5.67151 13.8087 6.13844 14.863 6.8596 15.7354C7.58075 16.6079 8.52827 17.2649 9.59821 17.6343V22.2463H13.6209V17.6343C14.8321 17.2164 15.8828 16.4313 16.6268 15.3882C17.3708 14.3451 17.771 13.0961 17.7717 11.8148Z" fill="white" stroke="#4D4D4D" stroke-width="2" stroke-linecap="round" stroke-linejoin="round"/>
<path d="M14.3196 19.3715H8.96216V21.4626H14.3196V19.3715Z" fill="#4D4D4D" stroke="#4D4D4D" stroke-width="2" stroke-linecap="round" stroke-linejoin="round"/>
<path d="M11.6096 0.753662V2.19053" stroke="#4D4D4D" stroke-width="2" stroke-linecap="round" stroke-linejoin="round"/>
<path d="M19.0114 3.59497L18.0999 4.70587" stroke="#4D4D4D" stroke-width="2" stroke-linecap="round" stroke-linejoin="round"/>
<path d="M3.98828 3.59497L4.89984 4.70587" stroke="#4D4D4D" stroke-width="2" stroke-linecap="round" stroke-linejoin="round"/>
</g>
<defs>
<clipPath id="clip0_350_3206">
<rect width="23" height="23" fill="white"/>
</clipPath>
</defs>
</svg>
