<svg width="32" height="32" viewBox="0 0 32 32" fill="none" xmlns="http://www.w3.org/2000/svg">
<g clip-path="url(#clip0_1011_5364)">
<path d="M16 0C7.16344 0 0 7.16344 0 16C0 24.8366 7.16344 32 16 32C24.8366 32 32 24.8366 32 16C32 7.16344 24.8366 0 16 0ZM21 20C21 20.5523 20.5523 21 20 21H12C11.4477 21 11 20.5523 11 20V12C11 11.4477 11.4477 11 12 11H20C20.5523 11 21 11.4477 21 12V20Z" fill="#C00D0D"/>
</g>
<defs>
<clipPath id="clip0_1011_5364">
<rect width="32" height="32" fill="white"/>
</clipPath>
</defs>
</svg>
