<svg width="26" height="26" viewBox="0 0 26 26" fill="none" xmlns="http://www.w3.org/2000/svg">
<path d="M18.4167 19.5H10.8333C10.546 19.5 10.2705 19.3859 10.0673 19.1827C9.86414 18.9796 9.75 18.704 9.75 18.4167V9.75002C9.75 9.4627 9.86414 9.18715 10.0673 8.98399C10.2705 8.78082 10.546 8.66669 10.8333 8.66669H21.6667C21.954 8.66669 22.2295 8.78082 22.4327 8.98399C22.6359 9.18715 22.75 9.4627 22.75 9.75002V22.75L18.4167 19.5Z" fill="white"/>
<path d="M9.75 16.25C9.21833 16.2152 8.69181 16.1244 8.17917 15.9792L4.33333 17.3334L4.62583 13.6067C3.7365 12.5181 3.25048 11.1557 3.25 9.75004C3.32607 7.9558 4.10958 6.26469 5.42919 5.04659C6.74879 3.8285 8.49708 3.18255 10.2917 3.25004C11.8989 3.20247 13.4723 3.71765 14.7402 4.70661C16.008 5.69558 16.8907 7.09624 17.2358 8.66671" stroke="#4D4F75" stroke-width="2.16667" stroke-linecap="round" stroke-linejoin="round"/>
<path d="M18.4167 19.5H10.8333C10.546 19.5 10.2705 19.3859 10.0673 19.1827C9.86414 18.9796 9.75 18.704 9.75 18.4167V9.75002C9.75 9.4627 9.86414 9.18715 10.0673 8.98399C10.2705 8.78082 10.546 8.66669 10.8333 8.66669H21.6667C21.954 8.66669 22.2295 8.78082 22.4327 8.98399C22.6359 9.18715 22.75 9.4627 22.75 9.75002V22.75L18.4167 19.5Z" stroke="#4D4F75" stroke-width="2.16667" stroke-linecap="round" stroke-linejoin="round"/>
</svg>
