<svg width="20" height="20" viewBox="0 0 20 20" fill="none" xmlns="http://www.w3.org/2000/svg">
<path d="M1 16.1666C1 15.0174 1.45655 13.9152 2.2692 13.1025C3.08186 12.2899 4.18406 11.8333 5.33333 11.8333H14C15.1493 11.8333 16.2515 12.2899 17.0641 13.1025C17.8768 13.9152 18.3333 15.0174 18.3333 16.1666C18.3333 16.7413 18.1051 17.2924 17.6987 17.6987C17.2924 18.105 16.7413 18.3333 16.1667 18.3333H3.16667C2.59203 18.3333 2.04093 18.105 1.6346 17.6987C1.22827 17.2924 1 16.7413 1 16.1666Z" stroke="#4D4F75" stroke-width="2" stroke-linejoin="round"/>
<path d="M9.66699 7.5C11.4619 7.5 12.917 6.04493 12.917 4.25C12.917 2.45507 11.4619 1 9.66699 1C7.87207 1 6.41699 2.45507 6.41699 4.25C6.41699 6.04493 7.87207 7.5 9.66699 7.5Z" stroke="#4D4F75" stroke-width="2"/>
</svg>
